{
	"accessors": [
		{
			"bufferView": 0,
			"byteOffset": 0,
			"componentType": 5126,
			"count": 24,
			"max": [0.5, 0.5, 0.5],
			"min": [-0.5, -0.5, -0.5],
			"normalized": false,
			"type": "VEC3"
		},
		{
			"bufferView": 1,
			"byteOffset": 0,
			"componentType": 5126,
			"count": 24,
			"max": [1, 0, 1, 1],
			"min": [-1, -0.00001525925472, -1, 1],
			"normalized": false,
			"type": "VEC4"
		},
		{
			"bufferView": 2,
			"byteOffset": 0,
			"componentType": 5126,
			"count": 24,
			"max": [1, 1, 1],
			"min": [-1, -1, -1],
			"normalized": false,
			"type": "VEC3"
		},
		{
			"bufferView": 3,
			"byteOffset": 0,
			"componentType": 5126,
			"count": 24,
			"max": [1, 1],
			"min": [0, 0],
			"normalized": false,
			"type": "VEC2"
		},
		{
			"bufferView": 4,
			"byteOffset": 0,
			"componentType": 5123,
			"count": 36,
			"max": [23],
			"min": [0],
			"normalized": false,
			"type": "SCALAR"
		}
	],
	"asset": {
		"copyright": "ImACopyright",
		"generator": "Godot Engine v4.3.beta.custom_build@6e8c69048aafe8a102fb40d02bba855d61516179",
		"version": "2.0"
	},
	"bufferViews": [
		{
			"buffer": 0,
			"byteLength": 288,
			"byteOffset": 0,
			"byteStride": 12,
			"target": 34962
		},
		{
			"buffer": 0,
			"byteLength": 384,
			"byteOffset": 288,
			"byteStride": 16,
			"target": 34962
		},
		{
			"buffer": 0,
			"byteLength": 288,
			"byteOffset": 672,
			"byteStride": 12,
			"target": 34962
		},
		{
			"buffer": 0,
			"byteLength": 192,
			"byteOffset": 960,
			"byteStride": 8,
			"target": 34962
		},
		{ "buffer": 0, "byteLength": 72, "byteOffset": 1152, "target": 34963 }
	],
	"buffers": [{ "byteLength": 1224, "uri": "cube_gltf_model0.bin" }],
	"extensionsUsed": ["GODOT_single_root"],
	"materials": [
		{
			"extensions": {},
			"pbrMetallicRoughness": {
				"baseColorFactor": [
					0.99999988079071, 0.99999988079071, 0.99999988079071, 1
				],
				"metallicFactor": 0,
				"roughnessFactor": 1
			}
		}
	],
	"meshes": [
		{
			"extras": { "targetNames": [] },
			"primitives": [
				{
					"attributes": {
						"NORMAL": 2,
						"POSITION": 0,
						"TANGENT": 1,
						"TEXCOORD_0": 3
					},
					"indices": 4,
					"material": 0,
					"mode": 4
				}
			]
		}
	],
	"nodes": [
		{ "children": [1], "name": "CubeGLTF" },
		{ "mesh": 0, "name": "CubeMesh" }
	],
	"scene": 0,
	"scenes": [{ "nodes": [0] }]
}
